G04 #@! TF.GenerationSoftware,KiCad,Pcbnew,(5.1.2)-1*
G04 #@! TF.CreationDate,2019-05-29T19:35:45+02:00*
G04 #@! TF.ProjectId,cy8ckit-059_grbl_board,63793863-6b69-4742-9d30-35395f677262,rev?*
G04 #@! TF.SameCoordinates,PX3034550PY7c44030*
G04 #@! TF.FileFunction,Copper,L2,Bot*
G04 #@! TF.FilePolarity,Positive*
%FSLAX46Y46*%
G04 Gerber Fmt 4.6, Leading zero omitted, Abs format (unit mm)*
G04 Created by KiCad (PCBNEW (5.1.2)-1) date 2019-05-29 19:35:45*
%MOMM*%
%LPD*%
G04 APERTURE LIST*
%ADD10O,2.000000X2.000000*%
%ADD11R,2.000000X2.000000*%
%ADD12R,1.700000X1.700000*%
%ADD13O,2.000000X3.500000*%
%ADD14R,1.600000X1.600000*%
%ADD15C,2.000000*%
%ADD16C,0.500000*%
%ADD17C,1.000000*%
%ADD18C,0.254000*%
G04 APERTURE END LIST*
D10*
X81280000Y17272000D03*
X81280000Y19812000D03*
X78740000Y17272000D03*
X78740000Y19812000D03*
X76200000Y17272000D03*
X76200000Y19812000D03*
X73660000Y17272000D03*
X73660000Y19812000D03*
X71120000Y17272000D03*
D11*
X71120000Y19812000D03*
D10*
X65278000Y17272000D03*
D11*
X65278000Y19812000D03*
D10*
X61214000Y17272000D03*
X61214000Y19812000D03*
X58674000Y17272000D03*
X58674000Y19812000D03*
X56134000Y17272000D03*
D12*
X56134000Y19812000D03*
D10*
X45974000Y17272000D03*
X45974000Y19812000D03*
X43434000Y17272000D03*
X43434000Y19812000D03*
X40894000Y17272000D03*
X40894000Y19812000D03*
X38354000Y17272000D03*
D12*
X38354000Y19812000D03*
D13*
X51562000Y72390000D03*
X49022000Y72390000D03*
D10*
X51308000Y17272000D03*
D11*
X51308000Y19812000D03*
D13*
X30808541Y46367933D03*
X33348541Y46367933D03*
X35888541Y46367933D03*
X38428541Y46367933D03*
X40968541Y46367933D03*
X43508541Y46367933D03*
X46048541Y46367933D03*
X48588541Y46367933D03*
X51128541Y46367933D03*
X53668541Y46367933D03*
X56208541Y46367933D03*
X58748541Y46367933D03*
X61288541Y46367933D03*
X63828541Y46367933D03*
X66368541Y46367933D03*
X68908541Y46367933D03*
X71448541Y46367933D03*
X73988541Y46367933D03*
X76528541Y46367933D03*
X79068541Y46367933D03*
X81608541Y46367933D03*
X84148541Y46367933D03*
X86688541Y46367933D03*
X89228541Y46367933D03*
X91768541Y46367933D03*
X94308541Y46367933D03*
X94308541Y26047933D03*
X91768541Y26047933D03*
X89228541Y26047933D03*
X86688541Y26047933D03*
X84148541Y26047933D03*
X81608541Y26047933D03*
X79068541Y26047933D03*
X76528541Y26047933D03*
X73988541Y26047933D03*
X71448541Y26047933D03*
X68908541Y26047933D03*
X66368541Y26047933D03*
X63828541Y26047933D03*
X61288541Y26047933D03*
X58748541Y26047933D03*
X56208541Y26047933D03*
X53668541Y26047933D03*
X51128541Y26047933D03*
X48588541Y26047933D03*
X46048541Y26047933D03*
X43508541Y26047933D03*
X40968541Y26047933D03*
X38428541Y26047933D03*
X35888541Y26047933D03*
X33348541Y26047933D03*
X30808541Y26047933D03*
D10*
X89154000Y17272000D03*
X89154000Y19812000D03*
X86614000Y17272000D03*
D11*
X86614000Y19812000D03*
D10*
X83783978Y58382572D03*
X83783978Y60922572D03*
X81243978Y58382572D03*
X81243978Y60922572D03*
X78703978Y58382572D03*
D11*
X78703978Y60922572D03*
D12*
X54356000Y60960000D03*
D10*
X54356000Y58420000D03*
X56896000Y60960000D03*
X56896000Y58420000D03*
X59436000Y60960000D03*
X59436000Y58420000D03*
X35306000Y58166000D03*
X35306000Y60706000D03*
X32766000Y58166000D03*
X32766000Y60706000D03*
X30226000Y58166000D03*
D12*
X30226000Y60706000D03*
D11*
X88974541Y70116933D03*
D10*
X86434541Y70116933D03*
X83894541Y70116933D03*
X81354541Y70116933D03*
X56839452Y70116933D03*
X59379452Y70116933D03*
X61919452Y70116933D03*
D12*
X64459452Y70116933D03*
X40460683Y70116933D03*
D10*
X37920683Y70116933D03*
X35380683Y70116933D03*
X32840683Y70116933D03*
D14*
X45794541Y61226933D03*
D15*
X45794541Y58726933D03*
X69924541Y58091933D03*
D14*
X69924541Y60591933D03*
D15*
X94054541Y58091933D03*
D14*
X94054541Y60591933D03*
X45540683Y65998171D03*
D10*
X27760683Y53298171D03*
X43000683Y65998171D03*
X30300683Y53298171D03*
X40460683Y65998171D03*
X32840683Y53298171D03*
X37920683Y65998171D03*
X35380683Y53298171D03*
X35380683Y65998171D03*
X37920683Y53298171D03*
X32840683Y65998171D03*
X40460683Y53298171D03*
X30300683Y65998171D03*
X43000683Y53298171D03*
X27760683Y65998171D03*
X45540683Y53298171D03*
X69539452Y53186553D03*
X51759452Y65886553D03*
X66999452Y53186553D03*
X54299452Y65886553D03*
X64459452Y53186553D03*
X56839452Y65886553D03*
X61919452Y53186553D03*
X59379452Y65886553D03*
X59379452Y53186553D03*
X61919452Y65886553D03*
X56839452Y53186553D03*
X64459452Y65886553D03*
X54299452Y53186553D03*
X66999452Y65886553D03*
X51759452Y53186553D03*
D14*
X69539452Y65886553D03*
X93943978Y66002572D03*
D10*
X76163978Y53302572D03*
X91403978Y66002572D03*
X78703978Y53302572D03*
X88863978Y66002572D03*
X81243978Y53302572D03*
X86323978Y66002572D03*
X83783978Y53302572D03*
X83783978Y66002572D03*
X86323978Y53302572D03*
X81243978Y66002572D03*
X88863978Y53302572D03*
X78703978Y66002572D03*
X91403978Y53302572D03*
X76163978Y66002572D03*
X93943978Y53302572D03*
D15*
X55446541Y73152000D03*
X45540541Y71767933D03*
X73480541Y73152000D03*
X94054541Y69735933D03*
X78740000Y73152000D03*
X98806000Y69735933D03*
D16*
X45540683Y53298171D02*
X45540683Y50939933D01*
X43508541Y46367933D02*
X43508541Y48399933D01*
X43508541Y48399933D02*
X43508683Y48399933D01*
X43508541Y48907791D02*
X45540683Y50939933D01*
X43508541Y48399933D02*
X43508541Y48907791D01*
D17*
X47094541Y61226933D02*
X47699541Y61831933D01*
X45794541Y61226933D02*
X47094541Y61226933D01*
X69924541Y61891933D02*
X69924541Y60591933D01*
X76163978Y66002572D02*
X75032608Y66002572D01*
X73704541Y65671933D02*
X69924541Y61891933D01*
X95354541Y60591933D02*
X94054541Y60591933D01*
X96594541Y61831933D02*
X95354541Y60591933D01*
X27760683Y68466075D02*
X33602541Y74307933D01*
X27760683Y65998171D02*
X27760683Y68466075D01*
X76274541Y67244505D02*
X76274541Y75287993D01*
X76163978Y67133942D02*
X76274541Y67244505D01*
X76163978Y66002572D02*
X76163978Y67133942D01*
X96594541Y67957933D02*
X96594541Y61831933D01*
X96594541Y68211933D02*
X96594541Y67957933D01*
X96594541Y71259933D02*
X96594541Y67957933D01*
X76274541Y75287993D02*
X92566481Y75287993D01*
X92566481Y75287993D02*
X96594541Y71259933D01*
X47699541Y65886553D02*
X47699541Y62046553D01*
X47738921Y65925933D02*
X47699541Y65886553D01*
X50588702Y65925933D02*
X47738921Y65925933D01*
X51759452Y65886553D02*
X50628082Y65886553D01*
X50628082Y65886553D02*
X50588702Y65925933D01*
X33602541Y74307933D02*
X47572541Y74307933D01*
X75010481Y75287993D02*
X76274541Y75287993D01*
X47699541Y66101173D02*
X47699541Y74688933D01*
X47699541Y74688933D02*
X48298601Y75287993D01*
X49223541Y75235534D02*
X49276000Y75287993D01*
X49223541Y72402933D02*
X49223541Y75235534D01*
X48298601Y75287993D02*
X49276000Y75287993D01*
X48298601Y75287993D02*
X48298601Y74129399D01*
X49276000Y75287993D02*
X49784000Y75287993D01*
X49784000Y75287993D02*
X49784000Y74168000D01*
X49784000Y75287993D02*
X75010481Y75287993D01*
X74035180Y66002572D02*
X73704541Y65671933D01*
X75032608Y66002572D02*
X74035180Y66002572D01*
D16*
X43000683Y51448075D02*
X43000683Y53298171D01*
X40968541Y46367933D02*
X40968541Y49415933D01*
X40968541Y49415933D02*
X43000683Y51448075D01*
X93943978Y66002572D02*
X93943978Y68609370D01*
X69539452Y69604844D02*
X73480541Y73545933D01*
X69539452Y65886553D02*
X69539452Y69604844D01*
X55446541Y73152000D02*
X73480541Y73152000D01*
X45540683Y71767791D02*
X45540541Y71767933D01*
X45540683Y65998171D02*
X45540683Y71767791D01*
X69539452Y69604844D02*
X69539452Y73169022D01*
X94308541Y46367933D02*
X95439911Y46367933D01*
X85598000Y17272000D02*
X89154000Y17272000D01*
X86616527Y17272000D02*
X89154000Y17272000D01*
X85598000Y17272000D02*
X38354000Y17272000D01*
X86388393Y17272000D02*
X85598000Y17272000D01*
X78740000Y73152000D02*
X90638474Y73152000D01*
X90638474Y73152000D02*
X94054541Y69735933D01*
X92964000Y17272000D02*
X98806000Y23114000D01*
X89154000Y17272000D02*
X92964000Y17272000D01*
X98806000Y68321720D02*
X98806000Y69735933D01*
X98437933Y46367933D02*
X98806000Y46736000D01*
X98806000Y23114000D02*
X98806000Y46736000D01*
X98806000Y46736000D02*
X98806000Y68321720D01*
X94308541Y46367933D02*
X98437933Y46367933D01*
X32840683Y65998171D02*
X32840683Y70116933D01*
X35380683Y65998171D02*
X35380683Y70116933D01*
X35380683Y53298171D02*
X35380683Y58378171D01*
X37920683Y65998171D02*
X37920683Y70116933D01*
X32840683Y53298171D02*
X32840683Y58378171D01*
X40460683Y65998171D02*
X40460683Y70116933D01*
X30300683Y53298171D02*
X30300683Y58378171D01*
X54299452Y53186553D02*
X54299452Y58116554D01*
X64459452Y65886553D02*
X64459452Y70116933D01*
X56839452Y53186553D02*
X56839452Y58116554D01*
X61919452Y65886553D02*
X61919452Y70116933D01*
X59379452Y53186553D02*
X59379452Y58116554D01*
X59379452Y65886553D02*
X59379452Y70116933D01*
X56839452Y65886553D02*
X56839452Y70116933D01*
X81243978Y70006370D02*
X81354541Y70116933D01*
X81243978Y66002572D02*
X81243978Y70006370D01*
X83783978Y70006370D02*
X83894541Y70116933D01*
X83783978Y66002572D02*
X83783978Y70006370D01*
X83783978Y53302572D02*
X83783978Y58382572D01*
X86323978Y70006370D02*
X86434541Y70116933D01*
X86323978Y66002572D02*
X86323978Y70006370D01*
X81243978Y53302572D02*
X81243978Y58382572D01*
X88863978Y70006370D02*
X88974541Y70116933D01*
X88863978Y66002572D02*
X88863978Y70006370D01*
X78703978Y53302572D02*
X78703978Y58382572D01*
D17*
X54299452Y65886553D02*
X54299452Y63381844D01*
X78703978Y63877496D02*
X78593415Y63766933D01*
X78703978Y66002572D02*
X78703978Y63877496D01*
X72424541Y58091933D02*
X69924541Y58091933D01*
X74369541Y59956933D02*
X72464541Y58051933D01*
X72464541Y58051933D02*
X72424541Y58091933D01*
X74369541Y62496933D02*
X75639541Y63766933D01*
X78593415Y63766933D02*
X75639541Y63766933D01*
X74369541Y62496933D02*
X74369541Y59956933D01*
X78593415Y63766933D02*
X88379541Y63766933D01*
X94054541Y58091933D02*
X92189541Y58091933D01*
X90879541Y59401933D02*
X90879541Y61266933D01*
X92189541Y58091933D02*
X90879541Y59401933D01*
X88379541Y63766933D02*
X90879541Y61266933D01*
X68360541Y58091933D02*
X69924541Y58091933D01*
X54299452Y63381844D02*
X63070630Y63381844D01*
X63070630Y63381844D02*
X68360541Y58091933D01*
X48842541Y58726933D02*
X45794541Y58726933D01*
X49604541Y59488933D02*
X48842541Y58726933D01*
X49604541Y62536933D02*
X49604541Y59488933D01*
X50449452Y63381844D02*
X49604541Y62536933D01*
X54299452Y63381844D02*
X50449452Y63381844D01*
X51763541Y71553303D02*
X51763541Y72402933D01*
X54299452Y69017392D02*
X51763541Y71553303D01*
X54299452Y65886553D02*
X54299452Y69017392D01*
X30300683Y64020791D02*
X30300683Y65998171D01*
X30554541Y63766933D02*
X30300683Y64020791D01*
X38595067Y63766933D02*
X30554541Y63766933D01*
X45794541Y58726933D02*
X43635067Y58726933D01*
X43635067Y58726933D02*
X38595067Y63766933D01*
D16*
X37920683Y53298171D02*
X40460683Y53298171D01*
X61919452Y53186553D02*
X64459452Y53186553D01*
X86323978Y53302572D02*
X88863978Y53302572D01*
X30300683Y60918171D02*
X35380683Y60918171D01*
X26054779Y60918171D02*
X30300683Y60918171D01*
X25982541Y60845933D02*
X26054779Y60918171D01*
X30808541Y46367933D02*
X25982541Y51193933D01*
X25982541Y51193933D02*
X25982541Y60845933D01*
X52324000Y60960000D02*
X54356000Y60960000D01*
X35306000Y60706000D02*
X37592000Y60706000D01*
X37592000Y60706000D02*
X41656000Y56642000D01*
X41656000Y56642000D02*
X50546000Y56642000D01*
X50546000Y56642000D02*
X51562000Y57658000D01*
X51562000Y57658000D02*
X51562000Y60198000D01*
X51562000Y60198000D02*
X52324000Y60960000D01*
X83783978Y60922572D02*
X76924572Y60922572D01*
X75946000Y59944000D02*
X75946000Y56388000D01*
X76924572Y60922572D02*
X75946000Y59944000D01*
X75946000Y56388000D02*
X74930000Y55372000D01*
X74930000Y55372000D02*
X67564000Y55372000D01*
X61976000Y60960000D02*
X54356000Y60960000D01*
X40460683Y55446683D02*
X41656000Y56642000D01*
X40460683Y53298171D02*
X40460683Y55446683D01*
X66246686Y56388000D02*
X66548000Y56388000D01*
X64459452Y54600766D02*
X66246686Y56388000D01*
X64459452Y53186553D02*
X64459452Y54600766D01*
X67564000Y55372000D02*
X66548000Y56388000D01*
X66548000Y56388000D02*
X61976000Y60960000D01*
X86323978Y58382572D02*
X86360000Y58418594D01*
X86323978Y53302572D02*
X86323978Y58382572D01*
X86360000Y58418594D02*
X86360000Y59690000D01*
X86360000Y59690000D02*
X85090000Y60960000D01*
X85052572Y60922572D02*
X83783978Y60922572D01*
X85090000Y60960000D02*
X85052572Y60922572D01*
X45794541Y19697933D02*
X46048541Y19951933D01*
X46048541Y19886541D02*
X45974000Y19812000D01*
X46048541Y26047933D02*
X46048541Y19886541D01*
X43508541Y19886541D02*
X43434000Y19812000D01*
X43508541Y26047933D02*
X43508541Y19886541D01*
X40968541Y19886541D02*
X40894000Y19812000D01*
X40968541Y26047933D02*
X40968541Y19886541D01*
X38428541Y19886541D02*
X38354000Y19812000D01*
X38428541Y26047933D02*
X38428541Y19886541D01*
X61288541Y19886541D02*
X61214000Y19812000D01*
X61288541Y26047933D02*
X61288541Y19886541D01*
X58748541Y19886541D02*
X58674000Y19812000D01*
X58748541Y26047933D02*
X58748541Y19886541D01*
X56208541Y19886541D02*
X56134000Y19812000D01*
X56208541Y26047933D02*
X56208541Y19886541D01*
X63828541Y23797933D02*
X63828541Y26047933D01*
X63828541Y22761459D02*
X63828541Y23797933D01*
X65278000Y21312000D02*
X63828541Y22761459D01*
X65278000Y19812000D02*
X65278000Y21312000D01*
X48588541Y20673459D02*
X49450000Y19812000D01*
X48588541Y26047933D02*
X48588541Y20673459D01*
X51308000Y19812000D02*
X49784000Y19812000D01*
X49784000Y19812000D02*
X49450000Y19812000D01*
X93943978Y50321370D02*
X93943978Y53302572D01*
X91768541Y46367933D02*
X91768541Y48145933D01*
X91768541Y48145933D02*
X93943978Y50321370D01*
X91403978Y51083370D02*
X91403978Y53302572D01*
X89228541Y46367933D02*
X89228541Y48907933D01*
X89228541Y48907933D02*
X91403978Y51083370D01*
X66999452Y49792844D02*
X66999452Y53186553D01*
X66368541Y46367933D02*
X66368541Y49161933D01*
X66368541Y49161933D02*
X66999452Y49792844D01*
X69539452Y49538844D02*
X69539452Y53186553D01*
X68908541Y46367933D02*
X68908541Y48907933D01*
X68908541Y48907933D02*
X69539452Y49538844D01*
X51759452Y50563022D02*
X51759452Y53186553D01*
X52398541Y49923933D02*
X51759452Y50563022D01*
X62558541Y49923933D02*
X52398541Y49923933D01*
X63828541Y46367933D02*
X63828541Y48653933D01*
X63828541Y48653933D02*
X62558541Y49923933D01*
X38428541Y46367933D02*
X38428541Y47499303D01*
X38428541Y47499303D02*
X34987911Y50939933D01*
X34987911Y50939933D02*
X28522541Y50939933D01*
X28522541Y50939933D02*
X27760541Y51701933D01*
X27760683Y52166801D02*
X27760683Y53298171D01*
X27760541Y51701933D02*
X27760541Y52166659D01*
X27760541Y52166659D02*
X27760683Y52166801D01*
X76163978Y51304496D02*
X76163978Y53302572D01*
X85164541Y49923933D02*
X77544541Y49923933D01*
X77544541Y49923933D02*
X76163978Y51304496D01*
X86688541Y48399933D02*
X85164541Y49923933D01*
X86688541Y46367933D02*
X86688541Y48399933D01*
X89228541Y19886541D02*
X89154000Y19812000D01*
X89228541Y26047933D02*
X89228541Y19886541D01*
X86688541Y19886541D02*
X86614000Y19812000D01*
X86688541Y26047933D02*
X86688541Y19886541D01*
X68908541Y26047933D02*
X68908541Y25325459D01*
X73660000Y22098000D02*
X73660000Y19812000D01*
X72898000Y22860000D02*
X73660000Y22098000D01*
X70104000Y22860000D02*
X72898000Y22860000D01*
X68834000Y24130000D02*
X70104000Y22860000D01*
X68908541Y26047933D02*
X68834000Y25973392D01*
X68834000Y25973392D02*
X68834000Y24130000D01*
X66368541Y24563459D02*
X71120000Y19812000D01*
X66368541Y26047933D02*
X66368541Y24563459D01*
X81608541Y20140541D02*
X81280000Y19812000D01*
X84148541Y22680541D02*
X84148541Y26047933D01*
X81280000Y19812000D02*
X84148541Y22680541D01*
X79068541Y20140541D02*
X78740000Y19812000D01*
X81608541Y22680541D02*
X78740000Y19812000D01*
X81608541Y26047933D02*
X81608541Y22680541D01*
X76528541Y20140541D02*
X76200000Y19812000D01*
X76528541Y26047933D02*
X76528541Y20140541D01*
D18*
G36*
X69723000Y69902606D02*
G01*
X69723000Y73025000D01*
X72845394Y73025000D01*
X69723000Y69902606D01*
X69723000Y69902606D01*
G37*
X69723000Y69902606D02*
X69723000Y73025000D01*
X72845394Y73025000D01*
X69723000Y69902606D01*
G36*
X49223541Y74645880D02*
G01*
X49149000Y74610777D01*
X49149000Y74326207D01*
X48895000Y74156874D01*
X48895000Y74610777D01*
X48641566Y74730124D01*
X48513645Y74699144D01*
X48219239Y74570010D01*
X47955683Y74385922D01*
X47733105Y74153954D01*
X47699541Y74101404D01*
X47699541Y74737443D01*
X48618521Y75196933D01*
X49223541Y75196933D01*
X49223541Y74645880D01*
X49223541Y74645880D01*
G37*
X49223541Y74645880D02*
X49149000Y74610777D01*
X49149000Y74326207D01*
X48895000Y74156874D01*
X48895000Y74610777D01*
X48641566Y74730124D01*
X48513645Y74699144D01*
X48219239Y74570010D01*
X47955683Y74385922D01*
X47733105Y74153954D01*
X47699541Y74101404D01*
X47699541Y74737443D01*
X48618521Y75196933D01*
X49223541Y75196933D01*
X49223541Y74645880D01*
M02*
