M48
; DRILL file {KiCad (5.1.2)-1} date 29.05.2019 19:35:48
; FORMAT={-:-/ absolute / metric / decimal}
; #@! TF.CreationDate,2019-05-29T19:35:48+02:00
; #@! TF.GenerationSoftware,Kicad,Pcbnew,(5.1.2)-1
FMAT,2
METRIC
T1C0.800
T2C1.000
T3C2.200
%
G90
G05
T1
X45.541Y71.768
X55.447Y73.152
X73.481Y73.152
X78.74Y73.152
X94.055Y69.736
X98.806Y69.736
X27.761Y65.998
X27.761Y53.298
X30.301Y65.998
X30.301Y53.298
X32.841Y65.998
X32.841Y53.298
X35.381Y65.998
X35.381Y53.298
X37.921Y65.998
X37.921Y53.298
X40.461Y65.998
X40.461Y53.298
X43.001Y65.998
X43.001Y53.298
X45.541Y65.998
X45.541Y53.298
X94.055Y60.592
X94.055Y58.092
X45.795Y61.227
X45.795Y58.727
X76.164Y66.003
X76.164Y53.303
X78.704Y66.003
X78.704Y53.303
X81.244Y66.003
X81.244Y53.303
X83.784Y66.003
X83.784Y53.303
X86.324Y66.003
X86.324Y53.303
X88.864Y66.003
X88.864Y53.303
X91.404Y66.003
X91.404Y53.303
X93.944Y66.003
X93.944Y53.303
X69.925Y60.592
X69.925Y58.092
X51.759Y65.887
X51.759Y53.187
X54.299Y65.887
X54.299Y53.187
X56.839Y65.887
X56.839Y53.187
X59.379Y65.887
X59.379Y53.187
X61.919Y65.887
X61.919Y53.187
X64.459Y65.887
X64.459Y53.187
X66.999Y65.887
X66.999Y53.187
X69.539Y65.887
X69.539Y53.187
T2
X54.356Y60.96
X54.356Y58.42
X56.896Y60.96
X56.896Y58.42
X59.436Y60.96
X59.436Y58.42
X81.355Y70.117
X83.895Y70.117
X86.435Y70.117
X88.975Y70.117
X32.841Y70.117
X35.381Y70.117
X37.921Y70.117
X40.461Y70.117
X56.134Y19.812
X56.134Y17.272
X58.674Y19.812
X58.674Y17.272
X61.214Y19.812
X61.214Y17.272
X49.022Y72.39
X51.562Y72.39
X78.704Y60.923
X78.704Y58.383
X81.244Y60.923
X81.244Y58.383
X83.784Y60.923
X83.784Y58.383
X65.278Y19.812
X65.278Y17.272
X30.809Y46.368
X30.809Y26.048
X33.349Y46.368
X33.349Y26.048
X35.889Y46.368
X35.889Y26.048
X38.429Y46.368
X38.429Y26.048
X40.969Y46.368
X40.969Y26.048
X43.509Y46.368
X43.509Y26.048
X46.049Y46.368
X46.049Y26.048
X48.589Y46.368
X48.589Y26.048
X51.129Y46.368
X51.129Y26.048
X53.669Y46.368
X53.669Y26.048
X56.209Y46.368
X56.209Y26.048
X58.749Y46.368
X58.749Y26.048
X61.289Y46.368
X61.289Y26.048
X63.829Y46.368
X63.829Y26.048
X66.369Y46.368
X66.369Y26.048
X68.909Y46.368
X68.909Y26.048
X71.449Y46.368
X71.449Y26.048
X73.989Y46.368
X73.989Y26.048
X76.529Y46.368
X76.529Y26.048
X79.069Y46.368
X79.069Y26.048
X81.609Y46.368
X81.609Y26.048
X84.149Y46.368
X84.149Y26.048
X86.689Y46.368
X86.689Y26.048
X89.229Y46.368
X89.229Y26.048
X91.769Y46.368
X91.769Y26.048
X94.309Y46.368
X94.309Y26.048
X51.308Y19.812
X51.308Y17.272
X30.226Y60.706
X30.226Y58.166
X32.766Y60.706
X32.766Y58.166
X35.306Y60.706
X35.306Y58.166
X71.12Y19.812
X71.12Y17.272
X73.66Y19.812
X73.66Y17.272
X76.2Y19.812
X76.2Y17.272
X78.74Y19.812
X78.74Y17.272
X81.28Y19.812
X81.28Y17.272
X56.839Y70.117
X59.379Y70.117
X61.919Y70.117
X64.459Y70.117
X38.354Y19.812
X38.354Y17.272
X40.894Y19.812
X40.894Y17.272
X43.434Y19.812
X43.434Y17.272
X45.974Y19.812
X45.974Y17.272
X86.614Y19.812
X86.614Y17.272
X89.154Y19.812
X89.154Y17.272
T3
X99.389Y73.673
X28.904Y73.673
X28.839Y17.093
X99.389Y17.158
T0
M30
